{"title":"The Legend of Korra S02E06 The Sting (1920x1080) [Phr0stY].mkv","uid":9040049,"size":1006964527,"categoryP":"video","categoryS":"hd___tv_shows","magnet":"?xt=urn:btih:c2d993ef5db57306a1f986ff9c509ad62a53065a&amp;dn=The+Legend+of+Korra+S02E06+The+Sting+%281920x1080%29+%5BPhr0stY%5D.mkv&amp;tr=udp%3A%2F%2Ftracker.openbittorrent.com%3A80&amp;tr=udp%3A%2F%2Fopen.demonii.com%3A1337&amp;tr=udp%3A%2F%2Ftracker.coppersurfer.tk%3A6969&amp;tr=udp%3A%2F%2Fexodus.desync.com%3A6969","seeders":1,"leechers":0,"uploader":"frostyon420","files":-1,"time":1381604313,"description":"please seed!!!!!!\n\n\n\nComplete name                            : D:TV showsAnimeThe Legend Of KorraBook 21080pThe Legend of Korra S02E06 The Sting (1920x1080) [Phr0stY].mkv\nFormat                                   : Matroska\nFormat version                           : Version 2\nFile size                                : 960 MiB\nDuration                                 : 23mn 43s\nOverall bit rate                         : 5 660 Kbps\nWriting application                      : Lavf54.59.106\nWriting library                          : Lavf54.59.106\n\nVideo\nID                                       : 1\nFormat                                   : AVC\nFormat/Info                              : Advanced Video Codec\nFormat profile                           : &lt;a class=&quot;__cf_email__&quot; href=&quot;/cdn-cgi/l/email-protection&quot; data-cfemail=&quot;3078595758707c041e00&quot;&gt;[email&amp;#160;protected]&lt;/a&gt;&lt;script cf-hash='f9e31' type=&quot;text/javascript&quot;&gt;\n/* &lt;![CDATA[ */!function(){try{var t=&quot;currentScript&quot;in document?document.currentScript:function(){for(var t=document.getElementsByTagName(&quot;script&quot;),e=t.length;e--;)if(t[e].getAttribute(&quot;cf-hash&quot;))return t[e]}();if(t&amp;&amp;t.previousSibling){var e,r,n,i,c=t.previousSibling,a=c.getAttribute(&quot;data-cfemail&quot;);if(a){for(e=&quot;&quot;,r=parseInt(a.substr(0,2),16),n=2;a.length-n;n+=2)i=parseInt(a.substr(n,2),16)^r,e+=String.fromCharCode(i);e=document.createTextNode(e),c.parentNode.replaceChild(e,c)}}}catch(u){}}();/* ]]&gt; */&lt;/script&gt;\nFormat settings, CABAC                   : Yes\nFormat settings, ReFrames                : 4 frames\nCodec ID                                 : V_MPEG4/ISO/AVC\nDuration                                 : 23mn 43s\nBit rate                                 : 5 163 Kbps\nWidth                                    : 1 916 pixels\nHeight                                   : 1 076 pixels\nDisplay aspect ratio                     : 16:9\nFrame rate mode                          : Constant\nFrame rate                               : 23.976 fps\nColor space                              : YUV\nChroma subsampling                       : 4:2:0\nBit depth                                : 8 bits\nScan type                                : Progressive\nBits/(Pixel*Frame)                       : 0.104\nStream size                              : 876 MiB (91%)\nDefault                                  : Yes\nForced                                   : No\nColor primaries                          : BT.709\nTransfer characteristics                 : BT.709\nMatrix coefficients                      : BT.709\n\nAudio\nID                                       : 2\nFormat                                   : AC-3\nFormat/Info                              : Audio Coding 3\nMode extension                           : CM (complete main)\nFormat settings, Endianness              : Big\nCodec ID                                 : A_AC3\nDuration                                 : 23mn 43s\nBit rate mode                            : Constant\nBit rate                                 : 384 Kbps\nChannel count                            : 6 channels\nChannel positions                        : Front: L C R, Side: L R, LFE\nSampling rate                            : 48.0 KHz\nBit depth                                : 16 bits\nCompression mode                         : Lossy\nStream size                              : 65.2 MiB (7%)\nDefault                                  : Yes\nForced                                   : No\n\n","torrent":{"xt":"urn:btih:c2d993ef5db57306a1f986ff9c509ad62a53065a","amp;dn":"The+Legend+of+Korra+S02E06+The+Sting+%281920x1080%29+%5BPhr0stY%5D.mkv","amp;tr":["udp%3A%2F%2Ftracker.openbittorrent.com%3A80","udp%3A%2F%2Fopen.demonii.com%3A1337","udp%3A%2F%2Ftracker.coppersurfer.tk%3A6969","udp%3A%2F%2Fexodus.desync.com%3A6969"],"infoHash":"c2d993ef5db57306a1f986ff9c509ad62a53065a","infoHashBuffer":{"type":"Buffer","data":[194,217,147,239,93,181,115,6,161,249,134,255,156,80,154,214,42,83,6,90]},"announce":[],"urlList":[]}}